<?xml version="1.0" encoding="utf-8"?>
<!-- Generator: Adobe Illustrator 24.0.1, SVG Export Plug-In . SVG Version: 6.00 Build 0)  -->
<svg version="1.1" id="Capa_1" xmlns="http://www.w3.org/2000/svg" xmlns:xlink="http://www.w3.org/1999/xlink" x="0px" y="0px"
	 viewBox="0 0 1652.1 522.1" style="enable-background:new 0 0 1652.1 522.1;" xml:space="preserve">
<style type="text/css">
	.st0{fill:#DDEFEF;}
</style>
<g>
	<path class="st0" d="M1623,518.6c0,1.5-1.2,2.7-2.7,2.7c-1.5,0-2.7-1.2-2.7-2.7c0-1.5,1.2-2.7,2.7-2.7
		C1621.8,515.9,1623,517.1,1623,518.6z"/>
	<circle class="st0" cx="1355.4" cy="443.3" r="2.7"/>
	<path class="st0" d="M193.8,409.9c0,1.5-1.2,2.7-2.7,2.7c-1.5,0-2.7-1.2-2.7-2.7c0-1.5,1.2-2.7,2.7-2.7
		C192.6,407.2,193.8,408.4,193.8,409.9z"/>
	<path class="st0" d="M31.2,505.8c0,1.5-1.2,2.7-2.7,2.7c-1.5,0-2.7-1.2-2.7-2.7c0-1.5,1.2-2.7,2.7-2.7
		C30,503.2,31.2,504.4,31.2,505.8z"/>
	<path class="st0" d="M467,412.5c0,1.5-1.2,2.7-2.7,2.7c-1.5,0-2.7-1.2-2.7-2.7s1.2-2.7,2.7-2.7C465.8,409.9,467,411,467,412.5z"/>
	<path class="st0" d="M1094.5,495.4c0,1.5-1.2,2.7-2.7,2.7c-1.5,0-2.7-1.2-2.7-2.7c0-1.5,1.2-2.7,2.7-2.7
		C1093.3,492.7,1094.5,493.9,1094.5,495.4z"/>
	<circle class="st0" cx="593.3" cy="502.8" r="2.7"/>
	<path class="st0" d="M1597.7,438c0,1.5-1.2,2.7-2.7,2.7c-1.5,0-2.7-1.2-2.7-2.7c0-1.5,1.2-2.7,2.7-2.7
		C1596.5,435.3,1597.7,436.5,1597.7,438z"/>
	<path class="st0" d="M22,396.1c0,1.5-1.2,2.7-2.7,2.7c-1.5,0-2.7-1.2-2.7-2.7c0-1.5,1.2-2.7,2.7-2.7C20.8,393.5,22,394.7,22,396.1z
		"/>
</g>
<g>
	<circle class="st0" cx="1392.9" cy="309.1" r="2.7"/>
	<path class="st0" d="M233.5,231.6c-0.1,1.5-1.3,2.6-2.8,2.6c-1.5-0.1-2.6-1.3-2.6-2.8c0.1-1.5,1.3-2.6,2.8-2.6
		C232.4,228.9,233.5,230.1,233.5,231.6z"/>
	<path class="st0" d="M67.4,321.3c-0.1,1.5-1.3,2.6-2.8,2.6c-1.5-0.1-2.6-1.3-2.6-2.8c0.1-1.5,1.3-2.6,2.8-2.6
		C66.3,318.6,67.4,319.9,67.4,321.3z"/>
	<path class="st0" d="M506.4,244.6c-0.1,1.5-1.3,2.6-2.8,2.6c-1.5-0.1-2.6-1.3-2.6-2.8c0.1-1.5,1.3-2.6,2.8-2.6
		C505.3,241.9,506.4,243.1,506.4,244.6z"/>
	<path class="st0" d="M933.5,288.8c-0.1,1.5-1.3,2.6-2.8,2.6c-1.5-0.1-2.6-1.3-2.6-2.8c0.1-1.5,1.3-2.6,2.8-2.6
		C932.4,286,933.5,287.3,933.5,288.8z"/>
	<circle class="st0" cx="633.3" cy="397.7" r="2.7"/>
	<path class="st0" d="M1635.3,312.9c-0.1,1.5-1.3,2.6-2.8,2.6c-1.5-0.1-2.6-1.3-2.6-2.8c0.1-1.5,1.3-2.6,2.8-2.6
		S1635.3,311.4,1635.3,312.9z"/>
	<path class="st0" d="M62.3,211.4c-0.1,1.5-1.3,2.6-2.8,2.6c-1.5-0.1-2.6-1.3-2.6-2.8c0.1-1.5,1.3-2.6,2.8-2.6
		C61.2,208.7,62.3,209.9,62.3,211.4z"/>
</g>
<g>
	<path class="st0" d="M24.8,111.9c-0.1-1.5,1.1-2.7,2.5-2.8c1.5-0.1,2.7,1.1,2.8,2.5c0.1,1.5-1.1,2.7-2.5,2.8
		C26.2,114.5,24.9,113.3,24.8,111.9z"/>
	<circle class="st0" cx="296.1" cy="104.1" r="2.7"/>
	<path class="st0" d="M1457.8,144.3c-0.1-1.5,1.1-2.7,2.5-2.8c1.5-0.1,2.7,1.1,2.8,2.5c0.1,1.5-1.1,2.7-2.5,2.8
		C1459.1,146.9,1457.8,145.8,1457.8,144.3z"/>
	<path class="st0" d="M801,83.3c-0.1-1.5,1.1-2.7,2.5-2.8c1.5-0.1,2.7,1.1,2.8,2.5c0.1,1.5-1.1,2.7-2.5,2.8
		C802.4,85.9,801.1,84.8,801,83.3z"/>
	<path class="st0" d="M1184.8,156.2c-0.1-1.5,1.1-2.7,2.5-2.8c1.5-0.1,2.7,1.1,2.8,2.5s-1.1,2.7-2.5,2.8S1184.9,157.7,1184.8,156.2z
		"/>
	<path class="st0" d="M553.8,106.9c-0.1-1.5,1.1-2.7,2.5-2.8c1.5-0.1,2.7,1.1,2.8,2.5c0.1,1.5-1.1,2.7-2.5,2.8
		C555.1,109.5,553.9,108.4,553.8,106.9z"/>
	<circle class="st0" cx="1044.5" cy="15.3" r="2.7"/>
	<path class="st0" d="M1630.1,148.9c-0.1-1.5,1.1-2.7,2.5-2.8c1.5-0.1,2.7,1.1,2.8,2.5c0.1,1.5-1.1,2.7-2.5,2.8
		C1631.4,151.5,1630.2,150.3,1630.1,148.9z"/>
</g>
</svg>
